<svg viewBox="0 0 22 22" xmlns="http://www.w3.org/2000/svg" xmlns:xlink="http://www.w3.org/1999/xlink" width="22.000000" height="22.000000" fill="none">
	<rect id="svg" width="22.000000" height="22.000000" x="0.000000" y="0.000000" />
	<path id="18573" d="M17.4166 15.5832L19.25 15.5832C19.8 15.5832 20.1666 15.2165 20.1666 14.6665L20.1666 11.9165C20.1666 11.0915 19.525 10.3582 18.7916 10.1748C17.1416 9.7165 14.6666 9.1665 14.6666 9.1665C14.6666 9.1665 13.475 7.88317 12.65 7.05817C12.1916 6.6915 11.6416 6.4165 11 6.4165L4.58331 6.4165C4.03331 6.4165 3.57498 6.78317 3.29998 7.2415L2.01665 9.89984C1.89526 10.2539 1.83331 10.6256 1.83331 10.9998L1.83331 14.6665C1.83331 15.2165 2.19998 15.5832 2.74998 15.5832L4.58331 15.5832" fill-rule="nonzero" stroke="rgb(232,25,44)" stroke-linecap="round" stroke-linejoin="round" stroke-width="1.833333" />
	<circle id="18574" cx="6.41664648" cy="15.583333" r="1.83333337" stroke="rgb(232,25,44)" stroke-linecap="round" stroke-linejoin="round" stroke-width="1.833333" />
	<path id="18575" d="M8.25 15.5835L13.75 15.5835" stroke="rgb(232,25,44)" stroke-linecap="round" stroke-linejoin="round" stroke-width="1.833333" />
	<circle id="18576" cx="15.583333" cy="15.583333" r="1.83333337" stroke="rgb(232,25,44)" stroke-linecap="round" stroke-linejoin="round" stroke-width="1.833333" />
</svg>
