<svg viewBox="0 0 20 20" xmlns="http://www.w3.org/2000/svg" xmlns:xlink="http://www.w3.org/1999/xlink" width="20.000000" height="20.000000" fill="none">
	<rect id="svg" width="20.000000" height="20.000000" x="0.000000" y="0.000000" />
	<path id="18540" d="M3.26267 5.52695C3.41992 4.9882 3.71066 4.49787 4.10793 4.10143C4.5052 3.705 4.99613 3.41529 5.53521 3.25916C6.07429 3.10304 6.64407 3.08555 7.19171 3.20833C7.49313 2.73692 7.90838 2.34897 8.39916 2.08024C8.88996 1.81151 9.4405 1.67065 10 1.67065C10.5596 1.67065 11.1101 1.81151 11.6009 2.08024C12.0917 2.34897 12.5069 2.73692 12.8084 3.20833C13.3568 3.08502 13.9276 3.10242 14.4675 3.25893C15.0075 3.41543 15.4991 3.70595 15.8966 4.10346C16.2941 4.50097 16.5846 4.99256 16.7411 5.5325C16.8976 6.07244 16.915 6.64319 16.7917 7.19167C17.2631 7.49309 17.6511 7.90834 17.9198 8.39912C18.1885 8.88991 18.3294 9.44046 18.3294 10C18.3294 10.5595 18.1885 11.1101 17.9198 11.6009C17.6511 12.0917 17.2631 12.5069 16.7917 12.8083C16.9145 13.356 16.897 13.9257 16.7409 14.4648C16.5848 15.0039 16.295 15.4948 15.8986 15.8921C15.5022 16.2894 15.0118 16.5801 14.4731 16.7374C13.9343 16.8946 13.3646 16.9133 12.8167 16.7917C12.5157 17.2649 12.1001 17.6545 11.6085 17.9244C11.1168 18.1944 10.5651 18.3359 10.0042 18.3359C9.44335 18.3359 8.89156 18.1944 8.39993 17.9244C7.90831 17.6545 7.49274 17.2649 7.19171 16.7917C6.64407 16.9144 6.07429 16.897 5.53521 16.7408C4.99613 16.5847 4.5052 16.295 4.10793 15.8986C3.71066 15.5021 3.41992 15.0118 3.26267 14.473C3.10542 13.9343 3.08674 13.3646 3.20837 12.8167C2.73334 12.516 2.34205 12.1001 2.07091 11.6077C1.79977 11.1152 1.65759 10.5622 1.65759 10C1.65759 9.43783 1.79977 8.88478 2.07091 8.39232C2.34205 7.89985 2.73334 7.48396 3.20837 7.18333L3.20837 7.18333C3.08674 6.63544 3.10542 6.0657 3.26267 5.52695Z" fill-rule="nonzero" stroke="rgb(232,25,44)" stroke-linecap="round" stroke-linejoin="round" stroke-width="1.666667" />
	<path id="18541" d="M7.5 10.0002L9.16667 11.6668L12.5 8.3335" fill-rule="nonzero" stroke="rgb(232,25,44)" stroke-linecap="round" stroke-linejoin="round" stroke-width="1.666667" />
</svg>
