<svg viewBox="0 0 22 22" xmlns="http://www.w3.org/2000/svg" xmlns:xlink="http://www.w3.org/1999/xlink" width="22.000000" height="22.000000" fill="none">
	<rect id="svg" width="22.000000" height="22.000000" x="0.000000" y="0.000000" />
	<path id="18569" d="M4.58332 19.921C4.30462 19.7601 4.07318 19.5286 3.91228 19.2499C3.75137 18.9712 3.66666 18.6551 3.66666 18.3333L3.66666 3.66659C3.66666 3.34477 3.75137 3.02862 3.91228 2.74992C4.07319 2.47122 4.30462 2.23978 4.58332 2.07887C4.86203 1.91797 5.17817 1.83325 5.49999 1.83325L12.8333 1.83325C13.1235 1.83278 13.4109 1.88972 13.679 2.00079C13.9471 2.11186 14.1905 2.27487 14.3953 2.48042L17.6843 5.76942C17.8904 5.9743 18.0539 6.21799 18.1653 6.4864C18.2767 6.75482 18.3338 7.04264 18.3333 7.33325L18.3333 18.3333C18.3333 18.6551 18.2486 18.9712 18.0877 19.2499C17.9268 19.5286 17.6954 19.7601 17.4167 19.921C17.138 20.0819 16.8218 20.1666 16.5 20.1666L5.49999 20.1666C5.17817 20.1666 4.86202 20.0819 4.58332 19.921Z" fill-rule="nonzero" stroke="rgb(232,25,44)" stroke-linecap="round" stroke-linejoin="round" stroke-width="1.833333" />
	<path id="18570" d="M12.8333 1.8335L12.8333 6.41683C12.8333 6.57774 12.8757 6.73581 12.9562 6.87516C13.0366 7.01451 13.1523 7.13023 13.2917 7.21069C13.431 7.29114 13.5891 7.3335 13.75 7.3335L18.3333 7.3335" fill-rule="nonzero" stroke="rgb(232,25,44)" stroke-linecap="round" stroke-linejoin="round" stroke-width="1.833333" />
	<path id="18571" d="M8.25 13.7498L10.0833 15.5832L13.75 11.9165" fill-rule="nonzero" stroke="rgb(232,25,44)" stroke-linecap="round" stroke-linejoin="round" stroke-width="1.833333" />
</svg>
