<svg viewBox="0 0 20 20" xmlns="http://www.w3.org/2000/svg" xmlns:xlink="http://www.w3.org/1999/xlink" width="20.000000" height="20.000000" fill="none">
	<rect id="svg" width="20.000000" height="20.000000" x="0.000000" y="0.000000" />
	<path id="18528" d="M17.95 12.5L14.1667 12.5C13.8741 12.5 13.5867 12.577 13.3333 12.7233C13.08 12.8696 12.8696 13.08 12.7233 13.3333C12.577 13.5867 12.5 13.8741 12.5 14.1667L12.5 17.95" fill-rule="nonzero" stroke="rgb(232,25,44)" stroke-linecap="round" stroke-linejoin="round" stroke-width="1.666667" />
	<path id="18529" d="M5.83337 2.78333L5.83337 4.16666C5.83337 4.6055 5.94889 5.03661 6.16831 5.41666C6.38773 5.79671 6.70333 6.1123 7.08337 6.33172C7.46342 6.55114 7.89453 6.66666 8.33337 6.66666C8.62593 6.66666 8.91334 6.74367 9.16671 6.88995C9.42007 7.03623 9.63047 7.24663 9.77675 7.49999C9.92303 7.75336 10 8.04076 10 8.33332C10 9.24999 10.75 9.99999 11.6667 9.99999C11.9593 9.99999 12.2467 9.92298 12.5 9.7767C12.7534 9.63042 12.9638 9.42002 13.1101 9.16666C13.2564 8.91329 13.3334 8.62589 13.3334 8.33332C13.3334 7.41666 14.0834 6.66666 15 6.66666L17.6417 6.66666" fill-rule="nonzero" stroke="rgb(232,25,44)" stroke-linecap="round" stroke-linejoin="round" stroke-width="1.666667" />
	<path id="18530" d="M9.16671 18.2916L9.16671 15C9.16671 14.7074 9.0897 14.42 8.94342 14.1666C8.79714 13.9133 8.58674 13.7029 8.33337 13.5566C8.08001 13.4103 7.7926 13.3333 7.50004 13.3333C7.20748 13.3333 6.92007 13.2563 6.66671 13.11C6.41334 12.9637 6.20295 12.7533 6.05666 12.5C5.91038 12.2466 5.83337 11.9592 5.83337 11.6666L5.83337 10.8333C5.83337 10.5407 5.75636 10.2533 5.61008 9.99996C5.4638 9.74659 5.25341 9.5362 5.00004 9.38992C4.74668 9.24364 4.45927 9.16663 4.16671 9.16663L1.70837 9.16663" fill-rule="nonzero" stroke="rgb(232,25,44)" stroke-linecap="round" stroke-linejoin="round" stroke-width="1.666667" />
	<circle id="18531" cx="9.99995899" cy="9.99995899" r="8.33333302" stroke="rgb(232,25,44)" stroke-linecap="round" stroke-linejoin="round" stroke-width="1.666667" />
</svg>
