<svg viewBox="0 0 22 22" xmlns="http://www.w3.org/2000/svg" xmlns:xlink="http://www.w3.org/1999/xlink" width="22.000000" height="22.000000" fill="none">
	<rect id="svg" width="22.000000" height="22.000000" x="0.000000" y="0.000000" />
	<path id="18547" d="M2.82883 16.0498L1.85258 19.0656C1.82113 19.2186 1.82926 19.377 1.87621 19.5259C1.92316 19.6748 2.00738 19.8093 2.12086 19.9165C2.23435 20.0238 2.37335 20.1003 2.52468 20.1387C2.67602 20.1772 2.83466 20.1763 2.98558 20.1363L6.11417 19.2215C6.45124 19.1546 6.80032 19.1838 7.12158 19.3058C8.85776 20.1166 10.8044 20.3629 12.6878 20.0102C14.5712 19.6574 16.2967 18.7233 17.6218 17.3392C18.9469 15.9551 19.8049 14.1905 20.0753 12.2935C20.3456 10.3965 20.0147 8.46246 19.129 6.76326C18.2434 5.06406 16.8475 3.68513 15.1376 2.82028C13.4277 1.95544 11.4898 1.64817 9.59622 1.94168C7.70267 2.23518 5.94869 3.11469 4.58085 4.45659C3.213 5.79848 2.30006 7.53529 1.97035 9.42287C1.64064 11.3105 1.91073 13.2539 2.74267 14.98C2.87745 15.3201 2.90746 15.6926 2.82883 16.0498Z" fill-rule="nonzero" stroke="rgb(232,25,44)" stroke-linecap="round" stroke-linejoin="round" stroke-width="1.833333" />
</svg>
