<svg viewBox="0 0 11 11" xmlns="http://www.w3.org/2000/svg" xmlns:xlink="http://www.w3.org/1999/xlink" width="11.000000" height="11.000000" fill="none">
	<rect id="svg" width="11.000000" height="11.000000" x="0.000000" y="0.000000" />
	<path id="18609" d="M5.77547 9.99105C5.72278 10.0307 5.66216 10.0585 5.59776 10.0725C5.53335 10.0866 5.46667 10.0866 5.40226 10.0725C5.33786 10.0585 5.27724 10.0307 5.22455 9.99105C4.37205 9.25496 1.83334 6.87163 1.83334 4.58317C1.83334 3.80885 2.07848 3.0544 2.53361 2.42796C2.98875 1.80152 3.63052 1.33524 4.36695 1.09596C5.10337 0.856684 5.89665 0.856684 6.63307 1.09596C7.3695 1.33524 8.01127 1.80152 8.46641 2.42796C8.92154 3.0544 9.16668 3.80885 9.16668 4.58317C9.16668 6.87163 6.62797 9.25496 5.77547 9.99105Z" fill-rule="nonzero" stroke="rgb(136,136,160)" stroke-linecap="round" stroke-linejoin="round" stroke-width="0.916667" />
	<circle id="18610" cx="5.5" cy="4.58349609" r="1.375" stroke="rgb(136,136,160)" stroke-linecap="round" stroke-linejoin="round" stroke-width="0.916667" />
</svg>
