<svg viewBox="0 0 28 28" xmlns="http://www.w3.org/2000/svg" xmlns:xlink="http://www.w3.org/1999/xlink" width="28.000000" height="28.000000" fill="none" customFrame="#000000">
	<defs>
		<clipPath id="clipPath_0">
			<rect width="28.000000" height="28.000000" x="0.000000" y="0.000000" fill="rgb(255,255,255)" />
		</clipPath>
	</defs>
	<rect id="div.absolute top-6 right-6 text-border" width="28.000000" height="28.000000" x="0.000000" y="0.000000" />
	<g id="svg" clip-path="url(#clipPath_0)" customFrame="url(#clipPath_0)">
		<rect id="svg" width="28.000000" height="28.000000" x="0.000000" y="0.000000" />
		<path id="18734" d="M17.5 3.81261C17.1453 4.0174 16.8508 4.31195 16.646 4.66667C16.4412 5.02138 16.3334 5.42375 16.3334 5.83333L16.3334 12.8333C16.3334 13.2429 16.4412 13.6453 16.646 14C16.8508 14.3547 17.1453 14.6493 17.5 14.8541C17.8548 15.0589 18.2571 15.1667 18.6667 15.1667C18.8715 15.1667 19.0727 15.2206 19.25 15.323C19.4274 15.4254 19.5747 15.5726 19.6771 15.75C19.7795 15.9274 19.8334 16.1285 19.8334 16.3333L19.8334 17.5C19.8334 17.9096 19.7256 18.312 19.5208 18.6667C19.316 19.0214 19.0214 19.3159 18.6667 19.5207C18.312 19.7255 17.9096 19.8333 17.5 19.8333C17.2952 19.8333 17.0941 19.8872 16.9167 19.9896C16.7394 20.092 16.5921 20.2393 16.4897 20.4167C16.3873 20.594 16.3334 20.7952 16.3334 21L16.3334 23.3333C16.3334 23.5381 16.3873 23.7393 16.4897 23.9167C16.5921 24.094 16.7394 24.2413 16.9167 24.3437C17.0941 24.4461 17.2952 24.5 17.5 24.5C18.7288 24.5 19.9359 24.1766 21 23.5622C22.0642 22.9478 22.9478 22.0641 23.5622 21C24.1766 19.9359 24.5 18.7288 24.5 17.5L24.5 5.83333C24.5 5.42375 24.3922 5.02138 24.1874 4.66667C23.9826 4.31195 23.6881 4.0174 23.3334 3.81261C22.9787 3.60781 22.5763 3.5 22.1667 3.5L18.6667 3.5C18.2571 3.5 17.8548 3.60781 17.5 3.81261Z" fill-rule="nonzero" stroke="rgb(42,42,56)" stroke-linecap="round" stroke-linejoin="round" stroke-width="2.333333" />
		<path id="18735" d="M4.66667 3.81261C4.31195 4.0174 4.0174 4.31195 3.81261 4.66667C3.60781 5.02138 3.5 5.42375 3.5 5.83333L3.5 12.8333C3.5 13.2429 3.60781 13.6453 3.81261 14C4.0174 14.3547 4.31195 14.6493 4.66667 14.8541C5.02138 15.0589 5.42375 15.1667 5.83333 15.1667C6.03813 15.1667 6.23931 15.2206 6.41667 15.323C6.59402 15.4254 6.7413 15.5726 6.8437 15.75C6.94609 15.9274 7 16.1285 7 16.3333L7 17.5C7 17.9096 6.89219 18.312 6.68739 18.6667C6.4826 19.0214 6.18804 19.3159 5.83333 19.5207C5.47862 19.7255 5.07625 19.8333 4.66667 19.8333C4.46187 19.8333 4.26069 19.8872 4.08333 19.9896C3.90598 20.092 3.7587 20.2393 3.6563 20.4167C3.55391 20.594 3.5 20.7952 3.5 21L3.5 23.3333C3.5 23.5381 3.55391 23.7393 3.6563 23.9167C3.7587 24.094 3.90598 24.2413 4.08333 24.3437C4.26069 24.4461 4.46187 24.5 4.66667 24.5C5.89542 24.5 7.10253 24.1766 8.16667 23.5622C9.2308 22.9478 10.1145 22.0641 10.7288 21C11.3432 19.9359 11.6667 18.7288 11.6667 17.5L11.6667 5.83333C11.6667 5.42375 11.5589 5.02138 11.3541 4.66667C11.1493 4.31195 10.8547 4.0174 10.5 3.81261C10.1453 3.60781 9.74292 3.5 9.33333 3.5L5.83333 3.5C5.42375 3.5 5.02138 3.60781 4.66667 3.81261Z" fill-rule="nonzero" stroke="rgb(42,42,56)" stroke-linecap="round" stroke-linejoin="round" stroke-width="2.333333" />
	</g>
</svg>
