<svg viewBox="0 0 12 12" xmlns="http://www.w3.org/2000/svg" xmlns:xlink="http://www.w3.org/1999/xlink" width="12.000000" height="12.000000" fill="none">
	<rect id="svg" width="12.000000" height="12.000000" x="0.000000" y="0.000000" />
	<path id="18604" d="M7 6.5L8 6.5C8.17554 6.5 8.34798 6.54621 8.5 6.63397C8.65202 6.72174 8.77826 6.84798 8.86602 7C8.95379 7.15202 9 7.32446 9 7.5L9 8.5C9 8.71118 9.06685 8.91694 9.19098 9.08778C9.31511 9.25863 9.49014 9.3858 9.69098 9.45106C9.89183 9.51631 10.1082 9.51631 10.309 9.45106C10.5099 9.3858 10.6849 9.25863 10.809 9.08779C10.9331 8.91694 11 8.71118 11 8.5L11 5.001C11.0001 4.86904 10.9741 4.73837 10.9235 4.61652C10.8728 4.49466 10.7986 4.38403 10.705 4.291L9 2.5" fill-rule="nonzero" stroke="rgb(136,136,160)" stroke-linecap="round" stroke-linejoin="round" stroke-width="1.000000" />
	<path id="18605" d="M7 10.5L7 2.5C7 2.32446 6.95379 2.15202 6.86603 2C6.77826 1.84798 6.65202 1.72174 6.5 1.63397C6.34798 1.54621 6.17554 1.5 6 1.5L2.5 1.5C2.32446 1.5 2.15202 1.54621 2 1.63397C1.84798 1.72174 1.72174 1.84798 1.63397 2C1.54621 2.15202 1.5 2.32446 1.5 2.5L1.5 10.5" fill-rule="nonzero" stroke="rgb(136,136,160)" stroke-linecap="round" stroke-linejoin="round" stroke-width="1.000000" />
	<path id="18606" d="M1 10.5L7.5 10.5" stroke="rgb(136,136,160)" stroke-linecap="round" stroke-linejoin="round" stroke-width="1.000000" />
	<path id="18607" d="M1.5 4.5L7 4.5" stroke="rgb(136,136,160)" stroke-linecap="round" stroke-linejoin="round" stroke-width="1.000000" />
</svg>
