<svg viewBox="0 0 22 22" xmlns="http://www.w3.org/2000/svg" xmlns:xlink="http://www.w3.org/1999/xlink" width="22.000000" height="22.000000" fill="none">
	<rect id="svg" width="22.000000" height="22.000000" x="0.000000" y="0.000000" />
	<path id="18563" d="M11 9.33984L11 12.8333" stroke="rgb(232,25,44)" stroke-linecap="round" stroke-linejoin="round" stroke-width="1.833333" />
	<path id="18564" d="M11 1.83325L11 4.58325" stroke="rgb(232,25,44)" stroke-linecap="round" stroke-linejoin="round" stroke-width="1.833333" />
	<path id="18565" d="M17.4167 11.9166L17.4167 6.41659C17.4167 6.09477 17.332 5.77862 17.1711 5.49992C17.0102 5.22122 16.7787 4.98978 16.5 4.82887C16.2213 4.66796 15.9052 4.58325 15.5834 4.58325L6.41671 4.58325C6.09489 4.58325 5.77874 4.66796 5.50004 4.82887C5.22134 4.98978 4.9899 5.22122 4.82899 5.49992C4.66809 5.77862 4.58337 6.09477 4.58337 6.41659L4.58337 11.9166" fill-rule="nonzero" stroke="rgb(232,25,44)" stroke-linecap="round" stroke-linejoin="round" stroke-width="1.833333" />
	<path id="18566" d="M17.7649 18.3332C18.751 16.6691 19.2644 14.7675 19.2499 12.8332L11.7443 9.4975C11.5099 9.39339 11.2564 9.3396 10.9999 9.3396C10.7435 9.3396 10.4899 9.39339 10.2556 9.4975L2.74994 12.8332C2.7289 14.1258 2.94372 15.4113 3.38385 16.6267C3.82398 17.8422 4.48205 18.9672 5.32578 19.9466" fill-rule="nonzero" stroke="rgb(232,25,44)" stroke-linecap="round" stroke-linejoin="round" stroke-width="1.833333" />
	<path id="18567" d="M1.83337 19.2499C2.38337 19.7083 2.93337 20.1666 4.12504 20.1666C6.41671 20.1666 6.41671 18.3333 8.70837 18.3333C9.90004 18.3333 10.45 18.7916 11 19.2499C11.55 19.7083 12.1 20.1666 13.2917 20.1666C15.5834 20.1666 15.5834 18.3333 17.875 18.3333C19.0667 18.3333 19.6167 18.7916 20.1667 19.2499" fill-rule="nonzero" stroke="rgb(232,25,44)" stroke-linecap="round" stroke-linejoin="round" stroke-width="1.833333" />
</svg>
