<svg viewBox="0 0 14 14" xmlns="http://www.w3.org/2000/svg" xmlns:xlink="http://www.w3.org/1999/xlink" width="14.000000" height="14.000000" fill="none">
	<rect id="svg" width="14.000000" height="14.000000" x="0.000000" y="0.000000" />
	<path id="18732" d="M6.72292 1.33901C6.74848 1.28737 6.78797 1.24389 6.83693 1.21349C6.88589 1.1831 6.94237 1.16699 7 1.16699C7.05763 1.16699 7.11411 1.1831 7.16307 1.21349C7.21203 1.24389 7.25152 1.28737 7.27708 1.33901L8.62459 4.06843C8.71336 4.24808 8.84439 4.4035 9.00645 4.52136C9.16851 4.63922 9.35674 4.716 9.555 4.7451L12.5685 5.1861C12.6256 5.19437 12.6792 5.21845 12.7234 5.25563C12.7675 5.2928 12.8003 5.34158 12.8182 5.39645C12.836 5.45132 12.8382 5.51008 12.8243 5.5661C12.8105 5.62212 12.7813 5.67315 12.74 5.71343L10.5607 7.8356C10.4169 7.97566 10.3094 8.14854 10.2473 8.33938C10.1852 8.53022 10.1705 8.73328 10.2043 8.9311L10.7188 11.9294C10.7288 11.9865 10.7227 12.0453 10.701 12.099C10.6793 12.1527 10.6429 12.1993 10.596 12.2333C10.5491 12.2674 10.4936 12.2876 10.4358 12.2916C10.3779 12.2956 10.3202 12.2833 10.269 12.2561L7.57517 10.8398C7.39767 10.7466 7.20019 10.6979 6.99971 10.6979C6.79923 10.6979 6.60175 10.7466 6.42425 10.8398L3.731 12.2561C3.67986 12.2832 3.62215 12.2953 3.56443 12.2912C3.50671 12.2871 3.4513 12.2669 3.40451 12.2329C3.35771 12.1989 3.3214 12.1524 3.29972 12.0987C3.27803 12.0451 3.27184 11.9864 3.28184 11.9294L3.79575 8.93168C3.8297 8.73377 3.81499 8.53058 3.7529 8.33962C3.69081 8.14867 3.58319 7.97569 3.43934 7.8356L1.26 5.71401C1.21835 5.67378 1.18883 5.62266 1.17481 5.56647C1.1608 5.51029 1.16284 5.45129 1.18071 5.39621C1.19859 5.34113 1.23157 5.29217 1.27591 5.25492C1.32025 5.21767 1.37416 5.19362 1.4315 5.18551L4.44442 4.7451C4.6429 4.71622 4.8314 4.63955 4.99368 4.52167C5.15596 4.4038 5.28716 4.24825 5.376 4.06843L6.72292 1.33901Z" fill="inherit" />
	<path id="18732" d="M6.83693 1.21349C6.88589 1.1831 6.94237 1.16699 7 1.16699C7.05763 1.16699 7.11411 1.1831 7.16307 1.21349C7.21203 1.24389 7.25152 1.28737 7.27708 1.33901L8.62459 4.06843C8.71336 4.24808 8.84439 4.4035 9.00645 4.52136C9.16851 4.63922 9.35674 4.716 9.555 4.7451L12.5685 5.1861C12.6256 5.19437 12.6792 5.21845 12.7234 5.25563C12.7675 5.2928 12.8003 5.34158 12.8182 5.39645C12.836 5.45132 12.8382 5.51008 12.8243 5.5661C12.8105 5.62212 12.7813 5.67315 12.74 5.71343L10.5607 7.8356C10.4169 7.97566 10.3094 8.14854 10.2473 8.33938C10.1852 8.53022 10.1705 8.73328 10.2043 8.9311L10.7188 11.9294C10.7288 11.9865 10.7227 12.0453 10.701 12.099C10.6793 12.1527 10.6429 12.1993 10.596 12.2333C10.5491 12.2674 10.4936 12.2876 10.4358 12.2916C10.3779 12.2956 10.3202 12.2833 10.269 12.2561L7.57517 10.8398C7.39767 10.7466 7.20019 10.6979 6.99971 10.6979C6.79923 10.6979 6.60175 10.7466 6.42425 10.8398L3.731 12.2561C3.67986 12.2832 3.62215 12.2953 3.56443 12.2912C3.50671 12.2871 3.4513 12.2669 3.40451 12.2329C3.35771 12.1989 3.3214 12.1524 3.29972 12.0987C3.27803 12.0451 3.27184 11.9864 3.28184 11.9294L3.79575 8.93168C3.8297 8.73377 3.81499 8.53058 3.7529 8.33962C3.69081 8.14867 3.58319 7.97569 3.43934 7.8356L1.26 5.71401C1.21835 5.67378 1.18883 5.62266 1.17481 5.56647C1.1608 5.51029 1.16284 5.45129 1.18071 5.39621C1.19859 5.34113 1.23157 5.29217 1.27591 5.25492C1.32025 5.21767 1.37416 5.19362 1.4315 5.18551L4.44442 4.7451C4.6429 4.71622 4.8314 4.63955 4.99368 4.52167C5.15596 4.4038 5.28716 4.24825 5.376 4.06843L6.72292 1.33901C6.74848 1.28737 6.78797 1.24389 6.83693 1.21349Z" stroke="rgb(253,199,0)" stroke-linecap="round" stroke-linejoin="round" stroke-width="1.166667" />
</svg>
