<svg viewBox="0 0 20 20" xmlns="http://www.w3.org/2000/svg" xmlns:xlink="http://www.w3.org/1999/xlink" width="20.000000" height="20.000000" fill="none">
	<rect id="svg" width="20.000000" height="20.000000" x="0.000000" y="0.000000" />
	<path id="18535" d="M13.3333 17.5L13.3333 15.8333C13.3333 15.2482 13.1793 14.6734 12.8867 14.1667C12.5941 13.6599 12.1734 13.2391 11.6666 12.9466C11.1599 12.654 10.5851 12.5 9.99996 12.5L4.99996 12.5C4.41484 12.5 3.84002 12.654 3.33329 12.9466C2.82656 13.2391 2.40577 13.6599 2.11321 14.1667C1.82065 14.6734 1.66663 15.2482 1.66663 15.8333L1.66663 17.5" fill-rule="nonzero" stroke="rgb(232,25,44)" stroke-linecap="round" stroke-linejoin="round" stroke-width="1.666667" />
	<path id="18536" d="M13.3334 2.60669C13.9033 2.75445 14.424 3.05055 14.8424 3.46485C15.2607 3.87916 15.5619 4.3969 15.7152 4.96539C15.8685 5.53388 15.8685 6.13283 15.7152 6.70132C15.5619 7.26981 15.2607 7.78755 14.8424 8.20186C14.424 8.61617 13.9033 8.91226 13.3334 9.06002" fill-rule="nonzero" stroke="rgb(232,25,44)" stroke-linecap="round" stroke-linejoin="round" stroke-width="1.666667" />
	<path id="18537" d="M18.3334 17.5001L18.3334 15.8334C18.333 15.3435 18.2247 14.8597 18.0161 14.4165C17.8075 13.9732 17.5037 13.5814 17.1265 13.2689C16.7492 12.9564 16.3077 12.7309 15.8334 12.6084" fill-rule="nonzero" stroke="rgb(232,25,44)" stroke-linecap="round" stroke-linejoin="round" stroke-width="1.666667" />
	<circle id="18538" cx="7.49995899" cy="5.83333302" r="3.33333325" stroke="rgb(232,25,44)" stroke-linecap="round" stroke-linejoin="round" stroke-width="1.666667" />
</svg>
